<svg width="35" height="41" viewBox="0 0 35 41" fill="none" xmlns="http://www.w3.org/2000/svg">
<path fill-rule="evenodd" clip-rule="evenodd" d="M30.8599 7.75676C33.0019 7.75676 34.7383 6.02035 34.7383 3.87838C34.7383 1.73641 33.0019 0 30.8599 0C28.7179 0 26.9815 1.73641 26.9815 3.87838C26.9815 6.02035 28.7179 7.75676 30.8599 7.75676ZM30.3058 17.1757C30.3058 25.4376 23.6083 32.1351 15.3464 32.1351C7.08451 32.1351 0.386927 25.4376 0.386927 17.1757C0.386927 8.91379 7.08451 2.21622 15.3464 2.21622C23.6083 2.21622 30.3058 8.91379 30.3058 17.1757ZM4.87476 17.1757C4.87476 22.959 9.56307 27.6473 15.3464 27.6473C21.1297 27.6473 25.818 22.959 25.818 17.1757C25.818 11.3924 21.1297 6.70405 15.3464 6.70405C9.56307 6.70405 4.87476 11.3924 4.87476 17.1757ZM30.4162 35.6283C26.1699 39.0962 20.8575 40.9934 15.3751 41C9.89262 41.0066 4.57568 39.1221 0.321045 35.6645L4.07738 31.0423C7.26836 33.6355 11.2561 35.0489 15.3679 35.0439C19.4797 35.039 23.464 33.616 26.6487 31.0152L30.4162 35.6283Z" fill="#F5FAFC"/>
</svg>
